<svg width="187" height="24" viewBox="0 0 187 24" fill="none" xmlns="http://www.w3.org/2000/svg">
<path fill-rule="evenodd" clip-rule="evenodd" d="M94.7141 5.80091C97.0142 7.0379 98.9364 8.82062 100.378 11.052C100.447 11.1572 100.515 11.1895 100.584 11.1895C100.652 11.1895 100.721 11.1572 100.79 11.052C102.231 8.82062 104.154 7.0379 106.454 5.80091C108.444 4.70136 109.749 2.84992 110.126 0.755937C110.126 0.586155 109.955 0.448711 109.783 0.517433C108.479 1.16827 107.346 1.47549 106.282 1.47549C105.012 1.47549 104.085 1.03082 103.261 0.650834C102.506 0.311268 101.854 0 100.859 0H100.309C99.3136 0 98.6615 0.311268 97.9064 0.650834C97.0825 1.03082 96.156 1.47549 94.8855 1.47549C93.8215 1.47549 92.6892 1.16827 91.3843 0.517433C91.2129 0.448711 91.0415 0.586155 91.0415 0.755937C91.4191 2.84992 92.7236 4.70136 94.7141 5.80091Z" fill="#DD4553"/>
<path fill-rule="evenodd" clip-rule="evenodd" d="M100.576 21.9425C94.5344 21.9425 89.626 17.0309 89.626 10.9551C89.626 9.51602 89.9005 8.10925 90.4499 6.83588C90.9301 7.6282 91.6513 8.34775 92.6809 8.99859C92.8527 9.13603 93.0241 9.24113 93.2307 9.3422L93.2646 9.37858C92.784 9.99707 92.5091 10.7853 92.5091 11.6423C92.5091 13.8051 94.2599 15.5554 96.3882 15.5554C97.0746 15.5554 97.7271 15.3857 98.2761 15.0744C99.855 18.3043 100.267 21.3927 100.576 21.3927C100.885 21.3927 101.297 18.3043 102.876 15.0744C103.425 15.3857 104.077 15.5554 104.764 15.5554C106.892 15.5554 108.643 13.8051 108.643 11.6423C108.643 10.7853 108.368 9.99707 107.887 9.37858L107.921 9.3422C108.128 9.24113 108.299 9.13603 108.471 8.99859C109.535 8.34775 110.256 7.59182 110.736 6.80354C111.251 8.07287 111.56 9.47964 111.56 10.9551C111.56 17.0309 106.652 21.9425 100.576 21.9425ZM94.9123 10.5428C95.8732 11.3675 96.6288 12.2972 97.2808 13.2917C97.0059 13.4291 96.7314 13.4978 96.3882 13.4978C95.3926 13.4978 94.5687 12.6732 94.5687 11.6423C94.5687 11.23 94.6718 10.8541 94.9123 10.5428ZM106.24 10.5428C106.48 10.8541 106.583 11.23 106.583 11.6423C106.583 12.6732 105.759 13.4978 104.764 13.4978C104.42 13.4978 104.146 13.4291 103.871 13.2917C104.523 12.2972 105.278 11.3675 106.24 10.5428ZM111.663 4.12744C111.835 2.92279 111.835 1.58474 111.8 0.0405273C111.766 1.14007 111.526 2.23962 111.079 3.23406C110.77 3.92128 110.359 4.57211 109.878 5.15422C109.741 5.32805 109.603 5.49783 109.432 5.67165C108.848 6.35887 108.093 6.94098 107.269 7.38565L107.201 7.42203C103.768 9.24113 101.88 12.1234 100.85 14.6621C100.782 14.7995 100.679 14.8682 100.576 14.8682C100.473 14.8682 100.37 14.7995 100.301 14.6621C99.2713 12.1234 97.3835 9.24113 93.951 7.42203L93.8823 7.38565C93.0585 6.94098 92.3038 6.35887 91.72 5.67165C91.5826 5.49783 91.4112 5.36039 91.2737 5.1906C90.7931 4.60849 90.4155 3.95361 90.1067 3.2664C89.6604 2.27196 89.3859 1.17241 89.3516 0.0405273C89.3172 1.58474 89.3172 2.95917 89.489 4.19616C88.2532 6.15271 87.5664 8.4852 87.5664 10.9551C87.5664 18.1669 93.4017 24.0001 100.576 24.0001C107.784 24.0001 113.62 18.1669 113.62 10.9551C113.62 8.44881 112.933 6.11632 111.663 4.12744Z" fill="#FFFFFF"/>
<path fill-rule="evenodd" clip-rule="evenodd" d="M0 12.0869C0 6.16468 4.43618 1.55225 10.4186 1.55225C13.2782 1.55225 15.5844 2.60328 17.3938 4.26877C17.5972 4.47089 17.6566 4.67706 17.452 4.93982L16.2842 6.19297C16.1096 6.3951 15.905 6.3951 15.6709 6.19297C14.2419 4.96811 12.549 4.20813 10.4481 4.20813C6.07014 4.20813 2.77312 7.56336 2.77312 12.0869C2.77312 16.6104 6.07014 19.9373 10.4481 19.9373C12.549 19.9373 14.2419 19.1814 15.6709 17.9524C15.905 17.718 16.1096 17.7503 16.2842 17.9242L17.452 19.2096C17.6849 19.4441 17.5972 19.6462 17.3938 19.8524C15.5844 21.5421 13.2782 22.5932 10.4186 22.5932C4.43618 22.5932 0 18.0131 0 12.0869Z" fill="#FFFFFF"/>
<path fill-rule="evenodd" clip-rule="evenodd" d="M41.0123 12.0869C41.0123 7.59166 37.6853 4.20813 33.3074 4.20813C28.9302 4.20813 25.6037 7.59166 25.6037 12.0869C25.6037 16.5538 28.9302 19.9373 33.3074 19.9373C37.6853 19.9373 41.0123 16.5538 41.0123 12.0869ZM22.8306 12.0869C22.8306 6.16468 27.4414 1.55225 33.3074 1.55225C39.1447 1.55225 43.7555 6.16468 43.7555 12.0869C43.7555 17.9807 39.1447 22.5932 33.3074 22.5932C27.4414 22.5932 22.8306 17.9807 22.8306 12.0869Z" fill="#FFFFFF"/>
<path fill-rule="evenodd" clip-rule="evenodd" d="M53.0178 12.204H56.2574C58.68 12.204 60.6346 11.1813 60.6346 8.20602C60.6346 5.23078 58.68 4.20805 56.2574 4.20805H53.0178V12.204ZM63.1154 22.2131H61.1015C60.8686 22.2131 60.6928 22.1282 60.5763 21.922L55.8192 14.6254H53.0178V21.8048C53.0178 22.0676 52.8727 22.2131 52.6099 22.2131H50.7124C50.45 22.2131 50.2754 22.0676 50.2754 21.8048V2.19491C50.2754 1.93215 50.45 1.78662 50.7124 1.78662H56.432C60.9555 1.78662 63.29 4.44251 63.29 8.20602C63.29 11.3308 61.6848 13.6916 58.5341 14.395L63.4077 21.6876C63.6122 22.011 63.4659 22.2131 63.1154 22.2131Z" fill="#FFFFFF"/>
<path fill-rule="evenodd" clip-rule="evenodd" d="M70.1816 21.8048V2.19491C70.1816 1.93215 70.3563 1.78662 70.619 1.78662H72.5162C72.7789 1.78662 72.924 1.93215 72.924 2.19491V12.7578L80.9212 2.02108C81.0659 1.84322 81.2418 1.78662 81.4463 1.78662H83.7808C84.16 1.78662 84.2477 2.02108 84.0137 2.31214L77.0679 11.1813L84.8311 21.6876C85.0356 21.9827 84.9192 22.2131 84.5687 22.2131H82.3801C82.1461 22.2131 81.9997 22.1565 81.855 21.9503L75.4344 13.2833L72.924 16.493V21.8048C72.924 22.0676 72.7789 22.2131 72.5162 22.2131H70.619C70.3563 22.2131 70.1816 22.0676 70.1816 21.8048Z" fill="#FFFFFF"/>
<path fill-rule="evenodd" clip-rule="evenodd" d="M122.185 21.8654L116.173 2.28384C116.087 1.98874 116.203 1.78662 116.524 1.78662H118.449C118.684 1.78662 118.888 1.87555 118.946 2.13831L123.82 18.5385L129.103 2.13831C129.189 1.87555 129.335 1.78662 129.598 1.78662H131.582C131.816 1.78662 131.962 1.87555 132.049 2.13831L137.331 18.5385L142.205 2.13831C142.293 1.87555 142.467 1.78662 142.701 1.78662H144.628C144.948 1.78662 145.065 1.98874 144.978 2.28384L138.995 21.8654C138.908 22.1282 138.704 22.2131 138.47 22.2131H136.369C136.106 22.2131 135.93 22.1282 135.844 21.8654L130.59 5.20249L125.307 21.8654C125.221 22.1282 125.045 22.2131 124.812 22.2131H122.682C122.448 22.2131 122.243 22.1282 122.185 21.8654Z" fill="#FFFFFF"/>
<path fill-rule="evenodd" clip-rule="evenodd" d="M161.698 20.2V21.7765C161.698 22.0393 161.522 22.2131 161.259 22.2131H151.862C151.6 22.2131 151.425 22.0676 151.425 21.8048V2.19491C151.425 1.93215 151.6 1.78662 151.862 1.78662H153.76C154.022 1.78662 154.167 1.93215 154.167 2.19491V19.7634H161.259C161.522 19.7634 161.698 19.9372 161.698 20.2Z" fill="#FFFFFF"/>
<path d="M167.426 8H169.146C170.442 8 171.074 7.352 171.074 6.424C171.074 5.656 170.602 5.136 169.954 4.976C170.426 4.792 170.722 4.344 170.722 3.784C170.722 3.072 170.266 2.4 169.194 2.4H167.426C167.354 2.4 167.314 2.448 167.314 2.52V7.88C167.314 7.952 167.354 8 167.426 8ZM168.194 4.688V3.192H169.042C169.554 3.192 169.874 3.392 169.874 3.912C169.874 4.424 169.554 4.688 169.042 4.688H168.194ZM168.194 7.208V5.392H169.09C169.778 5.392 170.162 5.704 170.162 6.304C170.162 6.904 169.778 7.208 169.09 7.208H168.194ZM172.617 8H175.393C175.465 8 175.513 7.952 175.513 7.88V7.32C175.513 7.248 175.465 7.2 175.393 7.2H173.401V5.536H175.281C175.353 5.536 175.401 5.496 175.401 5.424V4.856C175.401 4.784 175.353 4.736 175.281 4.736H173.401V3.2H175.393C175.465 3.2 175.505 3.152 175.505 3.08V2.52C175.505 2.448 175.465 2.4 175.393 2.4H172.617C172.545 2.4 172.505 2.448 172.505 2.52V7.88C172.505 7.952 172.545 8 172.617 8ZM178.349 8H179.013C179.085 8 179.133 7.952 179.133 7.88V3.2H180.269C180.341 3.2 180.389 3.152 180.389 3.08V2.52C180.389 2.448 180.341 2.4 180.269 2.4H177.093C177.021 2.4 176.981 2.448 176.981 2.52V3.08C176.981 3.152 177.021 3.2 177.093 3.2H178.237V7.88C178.237 7.952 178.277 8 178.349 8ZM185.618 7.864L183.714 2.496C183.69 2.432 183.626 2.4 183.562 2.4H182.834C182.77 2.4 182.714 2.432 182.69 2.496L180.786 7.864C180.754 7.944 180.794 8 180.882 8H181.57C181.642 8 181.682 7.976 181.706 7.904L182.042 6.928H184.362L184.69 7.904C184.714 7.976 184.762 8 184.826 8H185.522C185.61 8 185.65 7.944 185.618 7.864ZM182.314 6.128L183.202 3.512L184.09 6.128H182.314Z" fill="#ffffff"/>
</svg>
